/* XPM */
static char *_1edbf29d2974ac8f6064ccb5a79b94dUWJe7WygpXTvnfAj[] = {
/* columns rows colors chars-per-pixel */
"50 50 8 1 ",
"  c #647328",
". c #90625D",
"X c #AA7959",
"o c #C0D470",
"O c #E8CFA6",
"+ c #F3E5C2",
"@ c #F3F2C0",
"# c #F3F4E7",
/* pixels */
"oooooooooooooooooooooooooooooooooooooooooooooooooo",
"oooooooooooooooooooooooooooooooooooooooooooooooooo",
"oooooooooooooooooooooooooooooooooooooooooooooooooo",
"oooooooooooooooooooooooooooooooooooooooooooooooooo",
"oooooooooooooooooooooooooooooooooooooooooooooooooo",
"oooooooooooooooooooooooooooooooooooooooooooooooooo",
"oooooooooooooooooooooooooooooooooooooooooooooooooo",
"oooooooooooooooooooooooooooooooooooooooooooooooooo",
"oooooooooooooooooooooooooooooooooooooooooooooooooo",
"oooooooooooooooooooooooooooooooooooooooooooooooooo",
"oooooooooooooooooooooooooooooooooooooooooooooooooo",
"ooooooooooooooooooooo########ooooooooooooooooooooo",
"ooooooooooooooooooooo########ooooooooooooooooooooo",
"ooooooooooooooooooo##XXXXXXXX##ooooooooooooooooooo",
"ooooooooooooooooooo##XXXXXXXX##ooooooooooooooooooo",
"ooooooooooooooooo##XX@@@@@@@@XX##ooooooooooooooooo",
"ooooooooooooooooo##XX@@@@@@@@XX##ooooooooooooooooo",
"ooooooooooooooo##XX@@@@++##@@@@..##ooooooooooooooo",
"ooooooooooooooo##XX@@@@++##@@@@..##ooooooooooooooo",
"ooooooooooooo##XX@@@@##++++@@@@OO..##ooooooooooooo",
"ooooooooooooo##XX@@@@##++++@@@@OO..##ooooooooooooo",
"ooooooooooooo##XX@@######@@@@@@OO..##ooooooooooooo",
"ooooooooooooo##XX@@######@@@@@@OO..##ooooooooooooo",
"ooooooooooo##XX@@@@++##@@@@@@@@OOOO..##ooooooooooo",
"ooooooooooo##XX@@@@++##@@@@@@@@OOOO..##ooooooooooo",
"ooooooooooo##..@@@@@@@@@@@@@@OOOOOO..##ooooooooooo",
"ooooooooooo##..@@@@@@@@@@@@@@OOOOOO..##ooooooooooo",
"ooooooooooo##..@@@@@@@@@@@@@@OOOOOO..##ooooooooooo",
"ooooooooooo##..@@@@@@@@@@@@@@OOOOOO..##ooooooooooo",
"ooooooooooo##..@@@@@@@@@@@@OOOOOOOO..##ooooooooooo",
"ooooooooooo##..@@@@@@@@@@@@OOOOOOOO..##ooooooooooo",
"ooooooooooo##..@@@@@@@@@@OOOOOOOOOO..##ooooooooooo",
"ooooooooooo##..@@@@@@@@@@OOOOOOOOOO..##ooooooooooo",
"ooooooooooooo##..@@@@@@OOOOOOOOOO..##ooooooooooooo",
"ooooooooooooo##..@@@@@@OOOOOOOOOO..##ooooooooooooo",
"ooooooooooooooo##................##ooooooooooooooo",
"ooooooooooooooo##................##ooooooooooooooo",
"ooooooooooooo  oo################oo  ooooooooooooo",
"ooooooooooooo  oo################oo  ooooooooooooo",
"ooooooooooooo    oooooooooooooooo    ooooooooooooo",
"ooooooooooooo    oooooooooooooooo    ooooooooooooo",
"ooooooooooooooo                    ooooooooooooooo",
"ooooooooooooooo                    ooooooooooooooo",
"ooooooooooooooooooo            ooooooooooooooooooo",
"ooooooooooooooooooo            ooooooooooooooooooo",
"oooooooooooooooooooooooooooooooooooooooooooooooooo",
"oooooooooooooooooooooooooooooooooooooooooooooooooo",
"oooooooooooooooooooooooooooooooooooooooooooooooooo",
"oooooooooooooooooooooooooooooooooooooooooooooooooo",
"oooooooooooooooooooooooooooooooooooooooooooooooooo"
};
