/* XPM */
static char *_bf7ceee284d45ffdccf244347f7d0a1wBU5FxgcPNSIs28U[] = {
/* columns rows colors chars-per-pixel */
"50 50 9 1 ",
"  c #647328",
". c #754C60",
"X c #90625D",
"o c #C49A6C",
"O c #D4C169",
"+ c #C0D470",
"@ c #C58086",
"# c #E8CFA6",
"$ c #F3F2C0",
/* pixels */
"++++++++++++++++++++++++++++++++++++++++++++++++++",
"++++++++++++++++++++++++++++++++++++++++++++++++++",
"++++++++++++++++++++++++++++++++++++++++++++++++++",
"+++++++++++++++XXXXXXXXXXXX+++++++++++++++++++++++",
"+++++++++++++++XXXXXXXXXXXX+++++++++++++++++++++++",
"+++++++++++++++XXXXXXXXXXXX+++++++++++++++++++++++",
"+++++++++++++++XXXXXXXXXXXX+++++++++++++++++++++++",
"+++++++++++XXXX@@@@@@@@@@@@XXXX+++++++++++++++++++",
"+++++++++++XXXX@@@@@@@@@@@@XXXX+++++++++++++++++++",
"+++++++++++XXXX@@@@@@@@@@@@XXXX+++++++++++++++++++",
"+++++++++++XXXX@@@@@@@@@@@@XXXX+++++++++++++++++++",
"+++++++XXXX$$$$$$$$$$$$$$$$$$$$XXXX+++++++++++++++",
"+++++++XXXX$$$$$$$$$$$$$$$$$$$$XXXX+++++++++++++++",
"+++++++XXXX$$$$$$$$$$$$$$$$$$$$XXXX+++++++++++++++",
"+++++++XXXX$$$$$$$$$$$$$$$$$$$$XXXX+++++++++++++++",
"+++XXXX$$$$....$$$$$$$$....$$$$$$$$XXXX+++++++++++",
"+++XXXX$$$$....$$$$$$$$....$$$$$$$$XXXX+++++++++++",
"+++XXXX$$$$....$$$$$$$$....$$$$$$$$XXXX+++++++++++",
"+++XXXX$$$$....$$$$$$$$....$$$$$$$$XXXX+++++++++++",
"+++XXXX$$$$OOOOOOOO$$$$$$$$$$$$$$$$XXXX+++++++++++",
"+++XXXX$$$$OOOOOOOO$$$$$$$$$$$$$$$$XXXX+++++++++++",
"+++XXXX$$$$OOOOOOOO$$$$$$$$$$$$$$$$XXXX+++++++++++",
"+++XXXX$$$$OOOOOOOO$$$$$$$$$$$$$$$$XXXX+++++++++++",
"+++XXXX$$$$$$$$$$$$$$$$$$$$$$$$$$$$$$$$XXXX+++++++",
"+++XXXX$$$$$$$$$$$$$$$$$$$$$$$$$$$$$$$$XXXX+++++++",
"+++XXXX$$$$$$$$$$$$$$$$$$$$$$$$$$$$$$$$XXXX+++++++",
"+++XXXX$$$$$$$$$$$$$$$$$$$$$$$$$$$$$$$$XXXX+++++++",
"+++XXXX$$$$$$$$$$$$$$$$$$$$$$$$$$$$$$$$$$$$XXXX+++",
"+++XXXX$$$$$$$$$$$$$$$$$$$$$$$$$$$$$$$$$$$$XXXX+++",
"+++XXXX$$$$$$$$$$$$$$$$$$$$$$$$$$$$$$$$$$$$XXXX+++",
"+++XXXX$$$$$$$$$$$$$$$$$$$$$$$$$$$$$$$$$$$$XXXX+++",
"+++XXXX####$$$$$$$$$$$$oooo$$$$$$$$$$$$####XXXX+++",
"+++XXXX####$$$$$$$$$$$$oooo$$$$$$$$$$$$####XXXX+++",
"+++XXXX####$$$$$$$$$$$$oooo$$$$$$$$$$$$####XXXX+++",
"+++XXXX####$$$$$$$$$$$$oooo$$$$$$$$$$$$####XXXX+++",
"+++++++XXXX################ooooooooooooXXXX+++++++",
"+++++++XXXX################ooooooooooooXXXX+++++++",
"+++++++XXXX################ooooooooooooXXXX+++++++",
"+++++++XXXX################ooooooooooooXXXX+++++++",
"+++++++++++XXXXOOOOOOOOXXXXOOOOOOOOXXXX+++++++++++",
"+++++++++++XXXXOOOOOOOOXXXXOOOOOOOOXXXX+++++++++++",
"+++++++++++XXXXOOOOOOOOXXXXOOOOOOOOXXXX+++++++++++",
"+++++++++++XXXXOOOOOOOOXXXXOOOOOOOOXXXX+++++++++++",
"+++++++        XXXXXXXX    XXXXXXXX        +++++++",
"+++++++        XXXXXXXX    XXXXXXXX        +++++++",
"+++++++        XXXXXXXX    XXXXXXXX        +++++++",
"+++++++        XXXXXXXX    XXXXXXXX        +++++++",
"+++++++++++                            +++++++++++",
"+++++++++++                            +++++++++++",
"+++++++++++                            +++++++++++"
};
