/* XPM */
static char *_a5aff71fa3c4077f410369a0c42657fphNFSupWaxz9dgW8[] = {
/* columns rows colors chars-per-pixel */
"50 50 9 1 ",
"  c #90625D",
". c #AA7959",
"X c #F14E4E",
"o c #78A158",
"O c #F6FF08",
"+ c #B68962",
"@ c #C49A6C",
"# c #A4C263",
"$ c #C0D470",
/* pixels */
"$$$$$$$$$$$$$$$oooooooooooooooooooo$$$$$$$$$$$$$$$",
"$$$$$$$$$$$$$$$oooooooooooooooooooo$$$$$$$$$$$$$$$",
"$$$$$$$$$$$$$$$oooooooooooooooooooo$$$$$$$$$$$$$$$",
"$$$$$$$oooooooo####################oooooooo$$$$$$$",
"$$$$$$$oooooooo####################oooooooo$$$$$$$",
"$$$$$$$oooooooo####################oooooooo$$$$$$$",
"$$$$$$$oooooooo####################oooooooo$$$$$$$",
"$$$oooo############$$$$$$$$$$$$############oooo$$$",
"$$$oooo############$$$$$$$$$$$$############oooo$$$",
"$$$oooo############$$$$$$$$$$$$############oooo$$$",
"$$$oooo############$$$$$$$$$$$$############oooo$$$",
"$$$oooo########$$$$XXXX$$$$$$$$$$$$$$$$####oooo$$$",
"$$$oooo########$$$$XXXX$$$$$$$$$$$$$$$$####oooo$$$",
"$$$oooo########$$$$XXXX$$$$$$$$$$$$$$$$####oooo$$$",
"$$$oooo########$$$$XXXX$$$$$$$$$$$$$$$$####oooo$$$",
"$$$oooo####$$$$XXXXOOOOXXXX$$$$$$$$$$$$####oooo$$$",
"$$$oooo####$$$$XXXXOOOOXXXX$$$$$$$$$$$$####oooo$$$",
"$$$oooo####$$$$XXXXOOOOXXXX$$$$$$$$$$$$####oooo$$$",
"$$$oooo####$$$$XXXXOOOOXXXX$$$$$$$$$$$$####oooo$$$",
"$$$oooo####$$$$$$$$XXXX$$$$$$$$$$$$$$$$####oooo$$$",
"$$$oooo####$$$$$$$$XXXX$$$$$$$$$$$$$$$$####oooo$$$",
"$$$oooo####$$$$$$$$XXXX$$$$$$$$$$$$$$$$####oooo$$$",
"$$$oooo####$$$$$$$$XXXX$$$$$$$$$$$$$$$$####oooo$$$",
"$$$oooo########$$$$$$$$$$$$$$$$############oooo$$$",
"$$$oooo########$$$$$$$$$$$$$$$$############oooo$$$",
"$$$oooo########$$$$$$$$$$$$$$$$############oooo$$$",
"$$$oooo########$$$$$$$$$$$$$$$$############oooo$$$",
"$$$oooo############$$$$####################oooo$$$",
"$$$oooo############$$$$####################oooo$$$",
"$$$oooo############$$$$####################oooo$$$",
"$$$oooo############$$$$####################oooo$$$",
"$$$$$$$oooooooo####################oooooooo$$$$$$$",
"$$$$$$$oooooooo####################oooooooo$$$$$$$",
"$$$$$$$oooooooo####################oooooooo$$$$$$$",
"$$$$$$$oooooooo####################oooooooo$$$$$$$",
"$$$$$$$    ....oooooooooooooooooooo....    $$$$$$$",
"$$$$$$$    ....oooooooooooooooooooo....    $$$$$$$",
"$$$$$$$    ....oooooooooooooooooooo....    $$$$$$$",
"$$$$$$$    ....oooooooooooooooooooo....    $$$$$$$",
"$$$$$$$    ++++....................++++    $$$$$$$",
"$$$$$$$    ++++....................++++    $$$$$$$",
"$$$$$$$    ++++....................++++    $$$$$$$",
"$$$$$$$    ++++....................++++    $$$$$$$",
"$$$$$$$    @@@@++++++++++++++++++++++++    $$$$$$$",
"$$$$$$$    @@@@++++++++++++++++++++++++    $$$$$$$",
"$$$$$$$    @@@@++++++++++++++++++++++++    $$$$$$$",
"$$$$$$$    @@@@++++++++++++++++++++++++    $$$$$$$",
"$$$$$$$$$$$++++@@@@@@@@@@@@++++@@@@++++$$$$$$$$$$$",
"$$$$$$$$$$$++++@@@@@@@@@@@@++++@@@@++++$$$$$$$$$$$",
"$$$$$$$$$$$++++@@@@@@@@@@@@++++@@@@++++$$$$$$$$$$$"
};
